<?xml version="1.0" encoding="utf-8"?>
<!-- Generator: Adobe Illustrator 17.0.0, SVG Export Plug-In . SVG Version: 6.00 Build 0)  -->
<!DOCTYPE svg PUBLIC "-//W3C//DTD SVG 1.1//EN" "http://www.w3.org/Graphics/SVG/1.1/DTD/svg11.dtd">
<svg version="1.1" id="Layer_1" xmlns="http://www.w3.org/2000/svg" xmlns:xlink="http://www.w3.org/1999/xlink" x="0px" y="0px"
	 width="41.125px" height="6.147px" viewBox="0 0 41.125 6.147" enable-background="new 0 0 41.125 6.147" xml:space="preserve">
<path fill-rule="evenodd" clip-rule="evenodd" fill="#FFFFFF" d="M5.169,2.068c3.491,2.599,6.068,2.906,9.974,0
	c3.703-2.757,7.147-2.633,10.685,0c3.633,2.705,6.483,2.811,10.258,0c3.705-2.757,6.128-2.757,9.831,0l-1.209,1.599
	c-2.977-2.216-4.433-2.216-7.413,0c-4.442,3.306-8.233,3.307-12.676,0c-2.897-2.156-5.371-2.156-8.267,0
	c-4.402,3.275-7.991,3.275-12.392,0c-2.93-2.181-4.908-2.181-7.84,0l-1.209-1.599C-1.527-0.582,1.466-0.689,5.169,2.068z"/>
</svg>
